<svg xmlns="http://www.w3.org/2000/svg" viewBox="0 0 32 32">
  <rect x="2" y="4" width="28" height="24" rx="3" fill="#2563EB" />
  <rect x="4" y="6" width="24" height="20" rx="2" fill="#fff" />
  <!-- cm marks -->
  <line x1="6" y1="6" x2="6" y2="12" stroke="#1A1A2E" stroke-width="1.5"/>
  <line x1="12" y1="6" x2="12" y2="12" stroke="#1A1A2E" stroke-width="1.5"/>
  <line x1="18" y1="6" x2="18" y2="12" stroke="#1A1A2E" stroke-width="1.5"/>
  <line x1="24" y1="6" x2="24" y2="12" stroke="#1A1A2E" stroke-width="1.5"/>
  <!-- mm marks -->
  <line x1="7.2" y1="6" x2="7.2" y2="9" stroke="#1A1A2E" stroke-width="0.7"/>
  <line x1="8.4" y1="6" x2="8.4" y2="9" stroke="#1A1A2E" stroke-width="0.7"/>
  <line x1="9" y1="6" x2="9" y2="10" stroke="#1A1A2E" stroke-width="0.9"/>
  <line x1="10.2" y1="6" x2="10.2" y2="9" stroke="#1A1A2E" stroke-width="0.7"/>
  <line x1="13.2" y1="6" x2="13.2" y2="9" stroke="#1A1A2E" stroke-width="0.7"/>
  <line x1="14.4" y1="6" x2="14.4" y2="9" stroke="#1A1A2E" stroke-width="0.7"/>
  <line x1="15" y1="6" x2="15" y2="10" stroke="#1A1A2E" stroke-width="0.9"/>
  <line x1="16.2" y1="6" x2="16.2" y2="9" stroke="#1A1A2E" stroke-width="0.7"/>
  <!-- numbers -->
  <text x="6" y="18" font-size="5" font-family="sans-serif" fill="#1A1A2E" text-anchor="middle">0</text>
  <text x="12" y="18" font-size="5" font-family="sans-serif" fill="#1A1A2E" text-anchor="middle">1</text>
  <text x="18" y="18" font-size="5" font-family="sans-serif" fill="#1A1A2E" text-anchor="middle">2</text>
  <text x="24" y="18" font-size="5" font-family="sans-serif" fill="#1A1A2E" text-anchor="middle">3</text>
</svg>
